<svg width="446" height="170" viewBox="0 0 446 170" fill="none" xmlns="http://www.w3.org/2000/svg">
<rect x="1.5" y="12.5" width="443" height="156" rx="25.5" fill="white" stroke="#E5E7EB" stroke-width="3"/>
<path d="M88.452 109.01C84.2773 109.01 80.574 107.966 77.342 105.879C74.11 103.792 71.5513 100.93 69.666 97.294C67.848 93.5907 66.939 89.3823 66.939 84.669C66.939 79.9557 67.8817 75.781 69.767 72.145C71.6523 68.509 74.2783 65.681 77.645 63.661C81.0117 61.5737 84.8833 60.53 89.26 60.53C93.502 60.53 97.2053 61.5063 100.37 63.459C103.602 65.4117 106.093 68.1387 107.844 71.64C109.662 75.074 110.571 79.0467 110.571 83.558C110.571 83.962 110.537 84.3997 110.47 84.871C110.47 85.3423 110.436 85.7463 110.369 86.083H70.272V81.538H106.43L104.208 84.669C104.343 84.3323 104.477 83.8947 104.612 83.356C104.814 82.75 104.915 82.1777 104.915 81.639C104.915 78.4743 104.208 75.6463 102.794 73.155C101.447 70.6637 99.5957 68.711 97.239 67.297C94.8823 65.883 92.2227 65.176 89.26 65.176C85.826 65.176 82.8297 65.984 80.271 67.6C77.7797 69.1487 75.827 71.3707 74.413 74.266C72.999 77.094 72.292 80.4607 72.292 84.366C72.292 88.3387 72.9653 91.8063 74.312 94.769C75.726 97.7317 77.6787 100.021 80.17 101.637C82.7287 103.253 85.6913 104.061 89.058 104.061C92.6267 104.061 95.724 103.287 98.35 101.738C101.043 100.189 103.434 97.7653 105.521 94.466L109.763 97.193C107.137 101.233 104.073 104.229 100.572 106.182C97.138 108.067 93.098 109.01 88.452 109.01ZM147.614 94.769C148.288 96.4523 149.197 98.001 150.341 99.415C151.486 100.829 152.934 101.974 154.684 102.849C156.502 103.724 158.623 104.162 161.047 104.162C163.875 104.162 166.131 103.455 167.814 102.041C169.565 100.56 170.44 98.5397 170.44 95.981C170.44 94.0957 169.902 92.547 168.824 91.335C167.747 90.0557 166.333 89.012 164.582 88.204C162.832 87.3287 160.946 86.5543 158.926 85.881C156.772 85.073 154.684 84.164 152.664 83.154C150.644 82.144 148.961 80.7973 147.614 79.114C146.335 77.3633 145.695 75.1077 145.695 72.347C145.695 69.721 146.335 67.5327 147.614 65.782C148.961 64.0313 150.678 62.752 152.765 61.944C154.92 61.0687 157.209 60.631 159.633 60.631C162.259 60.631 164.616 61.0687 166.703 61.944C168.791 62.8193 170.575 63.964 172.056 65.378C173.538 66.792 174.682 68.3743 175.49 70.125L171.147 72.751C170.07 70.731 168.555 68.9803 166.602 67.499C164.65 66.0177 162.125 65.277 159.027 65.277C156.738 65.277 154.785 65.8493 153.169 66.994C151.621 68.1387 150.846 69.822 150.846 72.044C150.846 73.862 151.351 75.377 152.361 76.589C153.371 77.7337 154.718 78.6763 156.401 79.417C158.085 80.1577 159.869 80.8647 161.754 81.538C164.246 82.4807 166.535 83.5243 168.622 84.669C170.777 85.8137 172.494 87.2277 173.773 88.911C175.12 90.5943 175.793 92.749 175.793 95.375C175.793 99.415 174.379 102.714 171.551 105.273C168.791 107.764 165.188 109.01 160.744 109.01C157.512 109.01 154.684 108.438 152.26 107.293C149.904 106.148 147.985 104.667 146.503 102.849C145.089 101.031 144.046 99.1457 143.372 97.193L147.614 94.769ZM213.701 40.532C213.701 39.4547 214.071 38.5793 214.812 37.906C215.552 37.1653 216.428 36.795 217.438 36.795C218.515 36.795 219.39 37.1653 220.064 37.906C220.804 38.5793 221.175 39.4547 221.175 40.532C221.175 41.542 220.804 42.4173 220.064 43.158C219.39 43.8987 218.515 44.269 217.438 44.269C216.428 44.269 215.552 43.8987 214.812 43.158C214.071 42.4173 213.701 41.542 213.701 40.532ZM214.812 61.54H220.064V108H214.812V61.54ZM287.978 66.489H258.789V61.54H297.573L265.758 103.051H296.765V108H256.163L287.978 66.489ZM348.941 109.01C344.767 109.01 341.063 107.966 337.831 105.879C334.599 103.792 332.041 100.93 330.155 97.294C328.337 93.5907 327.428 89.3823 327.428 84.669C327.428 79.9557 328.371 75.781 330.256 72.145C332.142 68.509 334.768 65.681 338.134 63.661C341.501 61.5737 345.373 60.53 349.749 60.53C353.991 60.53 357.695 61.5063 360.859 63.459C364.091 65.4117 366.583 68.1387 368.333 71.64C370.151 75.074 371.06 79.0467 371.06 83.558C371.06 83.962 371.027 84.3997 370.959 84.871C370.959 85.3423 370.926 85.7463 370.858 86.083H330.761V81.538H366.919L364.697 84.669C364.832 84.3323 364.967 83.8947 365.101 83.356C365.303 82.75 365.404 82.1777 365.404 81.639C365.404 78.4743 364.697 75.6463 363.283 73.155C361.937 70.6637 360.085 68.711 357.728 67.297C355.372 65.883 352.712 65.176 349.749 65.176C346.315 65.176 343.319 65.984 340.76 67.6C338.269 69.1487 336.316 71.3707 334.902 74.266C333.488 77.094 332.781 80.4607 332.781 84.366C332.781 88.3387 333.455 91.8063 334.801 94.769C336.215 97.7317 338.168 100.021 340.659 101.637C343.218 103.253 346.181 104.061 349.547 104.061C353.116 104.061 356.213 103.287 358.839 101.738C361.533 100.189 363.923 97.7653 366.01 94.466L370.252 97.193C367.626 101.233 364.563 104.229 361.061 106.182C357.627 108.067 353.587 109.01 348.941 109.01Z" fill="black"/>
<path opacity="0.98" d="M143.111 130.204C142.748 130.204 142.386 130.159 142.023 130.068C141.672 129.989 141.298 129.841 140.901 129.626C140.856 129.592 140.822 129.552 140.799 129.507C140.788 129.45 140.788 129.382 140.799 129.303L141.037 127.059C141.037 127.002 141.065 126.974 141.122 126.974C141.19 126.974 141.224 127.002 141.224 127.059C141.235 127.546 141.315 128.011 141.462 128.453C141.621 128.895 141.87 129.252 142.21 129.524C142.55 129.796 142.992 129.932 143.536 129.932C143.876 129.932 144.199 129.87 144.505 129.745C144.822 129.609 145.1 129.399 145.338 129.116C145.576 128.821 145.735 128.43 145.814 127.943C145.916 127.422 145.882 126.98 145.712 126.617C145.553 126.243 145.315 125.92 144.998 125.648C144.681 125.365 144.341 125.104 143.978 124.866C143.627 124.617 143.292 124.362 142.975 124.101C142.669 123.829 142.431 123.512 142.261 123.149C142.102 122.786 142.068 122.344 142.159 121.823C142.284 121.234 142.522 120.746 142.873 120.361C143.224 119.964 143.644 119.67 144.131 119.477C144.618 119.284 145.111 119.188 145.61 119.188C145.893 119.188 146.188 119.222 146.494 119.29C146.8 119.347 147.117 119.449 147.446 119.596C147.593 119.675 147.661 119.772 147.65 119.885L147.429 121.772C147.429 121.817 147.395 121.84 147.327 121.84C147.27 121.84 147.236 121.817 147.225 121.772C147.202 121.398 147.134 121.035 147.021 120.684C146.908 120.321 146.721 120.027 146.46 119.8C146.199 119.562 145.825 119.443 145.338 119.443C144.896 119.443 144.528 119.539 144.233 119.732C143.95 119.925 143.723 120.168 143.553 120.463C143.394 120.746 143.287 121.047 143.23 121.364C143.139 121.829 143.173 122.231 143.332 122.571C143.502 122.9 143.74 123.189 144.046 123.438C144.352 123.687 144.681 123.937 145.032 124.186C145.406 124.424 145.757 124.685 146.086 124.968C146.415 125.24 146.67 125.569 146.851 125.954C147.032 126.328 147.078 126.781 146.987 127.314C146.896 127.847 146.687 128.334 146.358 128.776C146.029 129.207 145.593 129.552 145.049 129.813C144.505 130.074 143.859 130.204 143.111 130.204ZM149.706 130.153C149.434 130.153 149.252 130.034 149.162 129.796C149.071 129.558 149.088 129.122 149.213 128.487L149.91 124.951C150.034 124.282 149.938 123.948 149.621 123.948C149.496 123.948 149.326 124.016 149.111 124.152C148.907 124.288 148.686 124.481 148.448 124.73C148.414 124.775 148.368 124.775 148.312 124.73C148.266 124.673 148.266 124.628 148.312 124.594C148.697 124.152 149.048 123.823 149.366 123.608C149.683 123.393 149.989 123.285 150.284 123.285C150.567 123.285 150.748 123.41 150.828 123.659C150.907 123.897 150.884 124.316 150.76 124.917L150.08 128.487C150.012 128.827 150.006 129.076 150.063 129.235C150.119 129.394 150.216 129.473 150.352 129.473C150.476 129.473 150.641 129.411 150.845 129.286C151.049 129.15 151.27 128.963 151.508 128.725C151.553 128.68 151.598 128.68 151.644 128.725C151.689 128.77 151.689 128.816 151.644 128.861C151.27 129.28 150.924 129.603 150.607 129.83C150.301 130.045 150 130.153 149.706 130.153ZM150.777 121.279C150.55 121.279 150.369 121.217 150.233 121.092C150.108 120.967 150.046 120.786 150.046 120.548C150.046 120.333 150.108 120.163 150.233 120.038C150.369 119.913 150.55 119.851 150.777 119.851C151.015 119.851 151.19 119.913 151.304 120.038C151.428 120.163 151.491 120.333 151.491 120.548C151.491 121.035 151.253 121.279 150.777 121.279ZM152.07 130.119C152.047 130.13 152.019 130.108 151.985 130.051C151.939 130.006 151.922 129.977 151.934 129.966L157.289 123.88L157.187 124.067C157.039 124.271 156.903 124.413 156.779 124.492C156.654 124.56 156.473 124.594 156.235 124.594C155.997 124.594 155.713 124.56 155.385 124.492C155.067 124.424 154.761 124.356 154.467 124.288C154.172 124.22 153.934 124.186 153.753 124.186C153.56 124.186 153.407 124.254 153.294 124.39C153.192 124.526 153.078 124.73 152.954 125.002C152.942 125.047 152.903 125.059 152.835 125.036C152.767 125.013 152.744 124.974 152.767 124.917C152.948 124.407 153.095 124.039 153.209 123.812C153.333 123.585 153.464 123.444 153.6 123.387C153.747 123.319 153.94 123.291 154.178 123.302C154.574 123.325 155.033 123.404 155.555 123.54C156.076 123.665 156.558 123.738 157 123.761C157.181 123.761 157.34 123.727 157.476 123.659C157.612 123.591 157.765 123.461 157.935 123.268C157.969 123.245 158.003 123.262 158.037 123.319C158.082 123.364 158.093 123.398 158.071 123.421L152.733 129.507L152.801 129.303C152.948 129.099 153.09 128.963 153.226 128.895C153.362 128.827 153.549 128.793 153.787 128.793C154.07 128.793 154.393 128.827 154.756 128.895C155.13 128.952 155.487 129.014 155.827 129.082C156.178 129.15 156.456 129.184 156.66 129.184C156.852 129.184 157 129.127 157.102 129.014C157.215 128.889 157.323 128.685 157.425 128.402C157.436 128.379 157.47 128.374 157.527 128.385C157.595 128.396 157.623 128.425 157.612 128.47C157.453 128.969 157.311 129.337 157.187 129.575C157.073 129.802 156.949 129.943 156.813 130C156.688 130.057 156.512 130.085 156.286 130.085C155.968 130.074 155.617 130.034 155.232 129.966C154.858 129.898 154.478 129.83 154.093 129.762C153.707 129.683 153.345 129.637 153.005 129.626C152.823 129.626 152.665 129.66 152.529 129.728C152.393 129.796 152.24 129.926 152.07 130.119ZM160.531 130.204C159.931 130.204 159.455 130.045 159.103 129.728C158.763 129.411 158.537 128.997 158.423 128.487C158.321 127.977 158.327 127.433 158.44 126.855C158.508 126.436 158.656 126.011 158.882 125.58C159.12 125.138 159.415 124.741 159.766 124.39C160.118 124.039 160.509 123.755 160.939 123.54C161.37 123.325 161.829 123.217 162.316 123.217C162.736 123.217 163.042 123.302 163.234 123.472C163.438 123.631 163.518 123.852 163.472 124.135C163.416 124.407 163.257 124.668 162.996 124.917C162.736 125.166 162.401 125.393 161.993 125.597C161.585 125.79 161.126 125.96 160.616 126.107C160.118 126.254 159.596 126.356 159.052 126.413L159.086 126.192C159.959 126.067 160.69 125.869 161.279 125.597C161.88 125.314 162.231 124.945 162.333 124.492C162.413 124.186 162.362 123.976 162.18 123.863C161.999 123.738 161.795 123.676 161.568 123.676C161.183 123.676 160.849 123.795 160.565 124.033C160.282 124.271 160.05 124.588 159.868 124.985C159.687 125.382 159.557 125.818 159.477 126.294C159.353 126.929 159.336 127.495 159.426 127.994C159.528 128.493 159.727 128.889 160.021 129.184C160.316 129.479 160.701 129.626 161.177 129.626C161.449 129.626 161.733 129.586 162.027 129.507C162.322 129.428 162.611 129.28 162.894 129.065C162.928 129.042 162.962 129.054 162.996 129.099C163.042 129.144 163.047 129.184 163.013 129.218C162.583 129.569 162.163 129.824 161.755 129.983C161.347 130.13 160.939 130.204 160.531 130.204ZM169.765 130.204C169.55 130.204 169.34 130.159 169.136 130.068C168.943 129.989 168.796 129.847 168.694 129.643C168.603 129.428 168.592 129.133 168.66 128.759L169.391 124.798C169.47 124.379 169.476 124.118 169.408 124.016C169.351 123.914 169.153 123.863 168.813 123.863C168.768 123.863 168.751 123.829 168.762 123.761C168.773 123.693 168.796 123.659 168.83 123.659C169.227 123.659 169.567 123.534 169.85 123.285C170.133 123.024 170.32 122.713 170.411 122.35C170.422 122.316 170.473 122.299 170.564 122.299C170.666 122.299 170.711 122.316 170.7 122.35L169.646 128.232C169.555 128.697 169.572 129.037 169.697 129.252C169.833 129.467 170.077 129.575 170.428 129.575C170.757 129.575 171.051 129.501 171.312 129.354C171.573 129.195 171.822 129.014 172.06 128.81C172.083 128.787 172.117 128.799 172.162 128.844C172.219 128.889 172.23 128.923 172.196 128.946C171.686 129.399 171.238 129.722 170.853 129.915C170.468 130.108 170.105 130.204 169.765 130.204ZM172.213 124.186C172.19 124.186 172.066 124.175 171.839 124.152C171.612 124.118 171.346 124.09 171.04 124.067C170.745 124.033 170.456 124.016 170.173 124.016L170.207 123.608C170.502 123.608 170.819 123.597 171.159 123.574C171.499 123.551 171.811 123.534 172.094 123.523C172.377 123.5 172.559 123.489 172.638 123.489C172.695 123.489 172.729 123.506 172.74 123.54C172.763 123.563 172.768 123.597 172.757 123.642C172.746 123.733 172.678 123.846 172.553 123.982C172.44 124.118 172.326 124.186 172.213 124.186ZM173.776 130.136C173.617 130.136 173.509 130.125 173.453 130.102C173.407 130.091 173.385 130.068 173.385 130.034C173.385 129.989 173.413 129.836 173.47 129.575C173.538 129.314 173.594 129.037 173.64 128.742L175.374 119.477C175.453 119.069 175.408 118.814 175.238 118.712C175.068 118.61 174.728 118.684 174.218 118.933C174.172 118.956 174.133 118.933 174.099 118.865C174.076 118.797 174.087 118.757 174.133 118.746L176.326 117.675C176.371 117.652 176.416 117.664 176.462 117.709C176.507 117.754 176.524 117.788 176.513 117.811L174.32 129.881C174.297 130.051 174.116 130.136 173.776 130.136ZM178.111 130.153C177.816 130.153 177.629 130.028 177.55 129.779C177.482 129.53 177.504 129.099 177.618 128.487L178.111 125.784C178.235 125.138 178.247 124.662 178.145 124.356C178.043 124.039 177.822 123.88 177.482 123.88C177.119 123.88 176.739 124.112 176.343 124.577C175.946 125.042 175.566 125.722 175.204 126.617C174.852 127.512 174.558 128.6 174.32 129.881L174.116 129.864C174.354 128.538 174.671 127.376 175.068 126.379C175.464 125.382 175.918 124.605 176.428 124.05C176.949 123.495 177.487 123.217 178.043 123.217C178.53 123.217 178.847 123.393 178.995 123.744C179.153 124.095 179.165 124.668 179.029 125.461L178.468 128.487C178.411 128.827 178.405 129.076 178.451 129.235C178.507 129.394 178.609 129.473 178.757 129.473C178.881 129.473 179.04 129.405 179.233 129.269C179.425 129.122 179.641 128.929 179.879 128.691C179.924 128.646 179.969 128.646 180.015 128.691C180.06 128.736 180.06 128.782 180.015 128.827C179.652 129.246 179.318 129.575 179.012 129.813C178.706 130.04 178.405 130.153 178.111 130.153ZM183.027 130.204C182.426 130.204 181.95 130.045 181.599 129.728C181.259 129.411 181.032 128.997 180.919 128.487C180.817 127.977 180.822 127.433 180.936 126.855C181.004 126.436 181.151 126.011 181.378 125.58C181.616 125.138 181.91 124.741 182.262 124.39C182.613 124.039 183.004 123.755 183.435 123.54C183.865 123.325 184.324 123.217 184.812 123.217C185.231 123.217 185.537 123.302 185.73 123.472C185.934 123.631 186.013 123.852 185.968 124.135C185.911 124.407 185.752 124.668 185.492 124.917C185.231 125.166 184.897 125.393 184.489 125.597C184.081 125.79 183.622 125.96 183.112 126.107C182.613 126.254 182.092 126.356 181.548 126.413L181.582 126.192C182.454 126.067 183.185 125.869 183.775 125.597C184.375 125.314 184.727 124.945 184.829 124.492C184.908 124.186 184.857 123.976 184.676 123.863C184.494 123.738 184.29 123.676 184.064 123.676C183.678 123.676 183.344 123.795 183.061 124.033C182.777 124.271 182.545 124.588 182.364 124.985C182.182 125.382 182.052 125.818 181.973 126.294C181.848 126.929 181.831 127.495 181.922 127.994C182.024 128.493 182.222 128.889 182.517 129.184C182.811 129.479 183.197 129.626 183.673 129.626C183.945 129.626 184.228 129.586 184.523 129.507C184.817 129.428 185.106 129.28 185.39 129.065C185.424 129.042 185.458 129.054 185.492 129.099C185.537 129.144 185.543 129.184 185.509 129.218C185.078 129.569 184.659 129.824 184.251 129.983C183.843 130.13 183.435 130.204 183.027 130.204ZM191.92 130.187C191.489 130.187 191.115 130.085 190.798 129.881C190.481 129.677 190.345 129.428 190.39 129.133C190.413 128.974 190.475 128.855 190.577 128.776C190.679 128.697 190.787 128.657 190.9 128.657C191.047 128.657 191.155 128.719 191.223 128.844C191.302 128.957 191.382 129.088 191.461 129.235C191.54 129.382 191.654 129.518 191.801 129.643C191.948 129.756 192.158 129.813 192.43 129.813C192.736 129.813 192.98 129.728 193.161 129.558C193.354 129.388 193.473 129.127 193.518 128.776C193.563 128.425 193.512 128.124 193.365 127.875C193.218 127.614 193.014 127.382 192.753 127.178C192.504 126.974 192.254 126.77 192.005 126.566C191.767 126.351 191.574 126.113 191.427 125.852C191.291 125.591 191.257 125.285 191.325 124.934C191.393 124.583 191.54 124.282 191.767 124.033C192.005 123.784 192.283 123.597 192.6 123.472C192.929 123.336 193.257 123.268 193.586 123.268C193.994 123.268 194.334 123.353 194.606 123.523C194.878 123.682 194.997 123.88 194.963 124.118C194.929 124.277 194.855 124.396 194.742 124.475C194.64 124.543 194.538 124.577 194.436 124.577C194.277 124.577 194.153 124.532 194.062 124.441C193.971 124.35 193.881 124.243 193.79 124.118C193.711 123.993 193.609 123.886 193.484 123.795C193.371 123.693 193.201 123.642 192.974 123.642C192.759 123.642 192.566 123.699 192.396 123.812C192.226 123.925 192.124 124.095 192.09 124.322C192.033 124.662 192.079 124.957 192.226 125.206C192.385 125.455 192.589 125.688 192.838 125.903C193.087 126.118 193.337 126.339 193.586 126.566C193.835 126.781 194.028 127.025 194.164 127.297C194.311 127.569 194.357 127.886 194.3 128.249C194.243 128.578 194.102 128.895 193.875 129.201C193.66 129.496 193.382 129.734 193.042 129.915C192.702 130.096 192.328 130.187 191.92 130.187ZM197.968 130.204C197.367 130.204 196.891 130.045 196.54 129.728C196.2 129.411 195.973 128.997 195.86 128.487C195.758 127.977 195.764 127.433 195.877 126.855C195.945 126.436 196.092 126.011 196.319 125.58C196.557 125.138 196.852 124.741 197.203 124.39C197.554 124.039 197.945 123.755 198.376 123.54C198.807 123.325 199.266 123.217 199.753 123.217C200.172 123.217 200.478 123.302 200.671 123.472C200.875 123.631 200.954 123.852 200.909 124.135C200.852 124.407 200.694 124.668 200.433 124.917C200.172 125.166 199.838 125.393 199.43 125.597C199.022 125.79 198.563 125.96 198.053 126.107C197.554 126.254 197.033 126.356 196.489 126.413L196.523 126.192C197.396 126.067 198.127 125.869 198.716 125.597C199.317 125.314 199.668 124.945 199.77 124.492C199.849 124.186 199.798 123.976 199.617 123.863C199.436 123.738 199.232 123.676 199.005 123.676C198.62 123.676 198.285 123.795 198.002 124.033C197.719 124.271 197.486 124.588 197.305 124.985C197.124 125.382 196.993 125.818 196.914 126.294C196.789 126.929 196.772 127.495 196.863 127.994C196.965 128.493 197.163 128.889 197.458 129.184C197.753 129.479 198.138 129.626 198.614 129.626C198.886 129.626 199.169 129.586 199.464 129.507C199.759 129.428 200.048 129.28 200.331 129.065C200.365 129.042 200.399 129.054 200.433 129.099C200.478 129.144 200.484 129.184 200.45 129.218C200.019 129.569 199.6 129.824 199.192 129.983C198.784 130.13 198.376 130.204 197.968 130.204ZM203.917 134.675C203.871 134.686 203.843 134.658 203.832 134.59C203.82 134.522 203.837 134.482 203.883 134.471C204.143 134.426 204.336 134.369 204.461 134.301C204.585 134.233 204.682 134.108 204.75 133.927C204.818 133.757 204.886 133.496 204.954 133.145L206.11 126.617L206.297 126.6C206.013 127.371 205.673 128.028 205.277 128.572C204.88 129.105 204.461 129.513 204.019 129.796C203.577 130.079 203.146 130.221 202.727 130.221C202.296 130.221 201.962 130.04 201.724 129.677C201.486 129.303 201.401 128.827 201.469 128.249C201.548 127.58 201.724 126.946 201.996 126.345C202.279 125.733 202.625 125.195 203.033 124.73C203.452 124.254 203.905 123.886 204.393 123.625C204.891 123.353 205.401 123.217 205.923 123.217C206.127 123.217 206.331 123.257 206.535 123.336C206.739 123.404 206.909 123.529 207.045 123.71C207.192 123.88 207.277 124.107 207.3 124.39L206.586 123.931C206.722 123.908 206.88 123.818 207.062 123.659C207.254 123.489 207.385 123.296 207.453 123.081C207.464 123.047 207.498 123.036 207.555 123.047C207.623 123.058 207.651 123.075 207.64 123.098L205.855 133.026C205.775 133.445 205.804 133.74 205.94 133.91C206.076 134.08 206.387 134.131 206.875 134.063C206.909 134.04 206.937 134.063 206.96 134.131C206.982 134.199 206.965 134.239 206.909 134.25L203.917 134.675ZM203.254 129.388C203.718 129.388 204.155 129.224 204.563 128.895C204.971 128.555 205.328 128.107 205.634 127.552C205.94 126.985 206.149 126.368 206.263 125.699C206.387 125.042 206.359 124.56 206.178 124.254C206.008 123.937 205.707 123.789 205.277 123.812C204.608 123.823 204.002 124.141 203.458 124.764C202.914 125.376 202.562 126.288 202.404 127.501C202.381 127.784 202.375 128.039 202.387 128.266C202.409 128.493 202.455 128.691 202.523 128.861C202.591 129.031 202.681 129.161 202.795 129.252C202.919 129.343 203.072 129.388 203.254 129.388ZM210.36 130.221C209.873 130.221 209.544 130.045 209.374 129.694C209.204 129.331 209.199 128.759 209.357 127.977L209.969 124.951C210.037 124.6 210.043 124.35 209.986 124.203C209.93 124.044 209.833 123.965 209.697 123.965C209.573 123.965 209.414 124.039 209.221 124.186C209.029 124.322 208.813 124.509 208.575 124.747C208.53 124.792 208.485 124.792 208.439 124.747C208.394 124.702 208.394 124.656 208.439 124.611C208.813 124.18 209.153 123.852 209.459 123.625C209.765 123.398 210.066 123.285 210.36 123.285C210.632 123.285 210.808 123.41 210.887 123.659C210.978 123.908 210.961 124.339 210.836 124.951L210.292 127.654C210.145 128.311 210.128 128.793 210.241 129.099C210.355 129.405 210.576 129.558 210.904 129.558C211.278 129.558 211.664 129.326 212.06 128.861C212.457 128.396 212.831 127.716 213.182 126.821C213.545 125.926 213.84 124.838 214.066 123.557L214.287 123.574C214.061 124.9 213.743 126.062 213.335 127.059C212.939 128.056 212.485 128.833 211.975 129.388C211.465 129.943 210.927 130.221 210.36 130.221ZM213.675 130.153C213.392 130.153 213.216 130.034 213.148 129.796C213.08 129.547 213.097 129.122 213.199 128.521L214.066 123.557C214.1 123.387 214.282 123.302 214.61 123.302C214.78 123.302 214.888 123.313 214.933 123.336C214.99 123.359 215.018 123.381 215.018 123.404C215.018 123.449 214.99 123.602 214.933 123.863C214.877 124.124 214.82 124.401 214.763 124.696L214.066 128.487C213.953 129.156 214.044 129.49 214.338 129.49C214.474 129.49 214.644 129.422 214.848 129.286C215.052 129.15 215.279 128.957 215.528 128.708C215.562 128.663 215.602 128.668 215.647 128.725C215.693 128.77 215.698 128.81 215.664 128.844C215.268 129.286 214.911 129.615 214.593 129.83C214.287 130.045 213.981 130.153 213.675 130.153ZM218.654 130.204C218.053 130.204 217.577 130.045 217.226 129.728C216.886 129.411 216.659 128.997 216.546 128.487C216.444 127.977 216.449 127.433 216.563 126.855C216.631 126.436 216.778 126.011 217.005 125.58C217.243 125.138 217.537 124.741 217.889 124.39C218.24 124.039 218.631 123.755 219.062 123.54C219.492 123.325 219.951 123.217 220.439 123.217C220.858 123.217 221.164 123.302 221.357 123.472C221.561 123.631 221.64 123.852 221.595 124.135C221.538 124.407 221.379 124.668 221.119 124.917C220.858 125.166 220.524 125.393 220.116 125.597C219.708 125.79 219.249 125.96 218.739 126.107C218.24 126.254 217.719 126.356 217.175 126.413L217.209 126.192C218.081 126.067 218.812 125.869 219.402 125.597C220.002 125.314 220.354 124.945 220.456 124.492C220.535 124.186 220.484 123.976 220.303 123.863C220.121 123.738 219.917 123.676 219.691 123.676C219.305 123.676 218.971 123.795 218.688 124.033C218.404 124.271 218.172 124.588 217.991 124.985C217.809 125.382 217.679 125.818 217.6 126.294C217.475 126.929 217.458 127.495 217.549 127.994C217.651 128.493 217.849 128.889 218.144 129.184C218.438 129.479 218.824 129.626 219.3 129.626C219.572 129.626 219.855 129.586 220.15 129.507C220.444 129.428 220.733 129.28 221.017 129.065C221.051 129.042 221.085 129.054 221.119 129.099C221.164 129.144 221.17 129.184 221.136 129.218C220.705 129.569 220.286 129.824 219.878 129.983C219.47 130.13 219.062 130.204 218.654 130.204ZM227.575 130.153C227.28 130.153 227.093 130.028 227.014 129.779C226.946 129.53 226.968 129.099 227.082 128.487L227.575 125.784C227.835 124.515 227.626 123.88 226.946 123.88C226.583 123.88 226.203 124.112 225.807 124.577C225.41 125.042 225.03 125.722 224.668 126.617C224.316 127.512 224.022 128.6 223.784 129.881L223.58 129.864C223.818 128.538 224.135 127.376 224.532 126.379C224.928 125.382 225.382 124.605 225.892 124.05C226.413 123.495 226.951 123.217 227.507 123.217C227.994 123.217 228.317 123.393 228.476 123.744C228.646 124.095 228.651 124.668 228.493 125.461L227.932 128.487C227.875 128.827 227.875 129.076 227.932 129.235C227.988 129.394 228.085 129.473 228.221 129.473C228.345 129.473 228.504 129.405 228.697 129.269C228.889 129.122 229.105 128.929 229.343 128.691C229.377 128.646 229.416 128.646 229.462 128.691C229.518 128.736 229.524 128.782 229.479 128.827C229.116 129.246 228.782 129.575 228.476 129.813C228.17 130.04 227.869 130.153 227.575 130.153ZM223.24 130.136C223.081 130.136 222.973 130.125 222.917 130.102C222.871 130.091 222.849 130.068 222.849 130.034C222.849 129.989 222.877 129.836 222.934 129.575C223.002 129.314 223.058 129.037 223.104 128.742L223.801 124.951C223.914 124.282 223.818 123.948 223.512 123.948C223.387 123.948 223.223 124.016 223.019 124.152C222.815 124.288 222.588 124.481 222.339 124.73C222.305 124.775 222.259 124.775 222.203 124.73C222.157 124.673 222.157 124.628 222.203 124.594C222.588 124.152 222.939 123.823 223.257 123.608C223.585 123.393 223.897 123.285 224.192 123.285C224.464 123.285 224.634 123.41 224.702 123.659C224.781 123.897 224.77 124.316 224.668 124.917L223.784 129.881C223.761 130.051 223.58 130.136 223.24 130.136ZM232.517 130.221C232.029 130.221 231.627 130.113 231.31 129.898C231.004 129.671 230.771 129.382 230.613 129.031C230.454 128.668 230.363 128.272 230.341 127.841C230.318 127.41 230.352 126.985 230.443 126.566C230.59 125.852 230.856 125.251 231.242 124.764C231.638 124.265 232.086 123.886 232.585 123.625C233.095 123.353 233.593 123.217 234.081 123.217C234.353 123.217 234.602 123.262 234.829 123.353C235.067 123.432 235.248 123.546 235.373 123.693C235.509 123.84 235.565 124.016 235.543 124.22C235.531 124.367 235.48 124.498 235.39 124.611C235.299 124.713 235.163 124.764 234.982 124.764C234.823 124.764 234.693 124.713 234.591 124.611C234.5 124.509 234.426 124.379 234.37 124.22C234.336 124.084 234.251 123.948 234.115 123.812C233.979 123.665 233.769 123.591 233.486 123.591C233.112 123.591 232.789 123.704 232.517 123.931C232.245 124.146 232.024 124.441 231.854 124.815C231.695 125.178 231.57 125.586 231.48 126.039C231.366 126.662 231.344 127.252 231.412 127.807C231.491 128.351 231.678 128.793 231.973 129.133C232.267 129.462 232.687 129.626 233.231 129.626C233.605 129.626 233.939 129.547 234.234 129.388C234.528 129.229 234.795 129.054 235.033 128.861C235.067 128.838 235.106 128.85 235.152 128.895C235.197 128.94 235.203 128.98 235.169 129.014C234.704 129.433 234.251 129.739 233.809 129.932C233.367 130.125 232.936 130.221 232.517 130.221ZM238.343 130.204C237.742 130.204 237.266 130.045 236.915 129.728C236.575 129.411 236.348 128.997 236.235 128.487C236.133 127.977 236.139 127.433 236.252 126.855C236.32 126.436 236.467 126.011 236.694 125.58C236.932 125.138 237.227 124.741 237.578 124.39C237.929 124.039 238.32 123.755 238.751 123.54C239.182 123.325 239.641 123.217 240.128 123.217C240.547 123.217 240.853 123.302 241.046 123.472C241.25 123.631 241.329 123.852 241.284 124.135C241.227 124.407 241.069 124.668 240.808 124.917C240.547 125.166 240.213 125.393 239.805 125.597C239.397 125.79 238.938 125.96 238.428 126.107C237.929 126.254 237.408 126.356 236.864 126.413L236.898 126.192C237.771 126.067 238.502 125.869 239.091 125.597C239.692 125.314 240.043 124.945 240.145 124.492C240.224 124.186 240.173 123.976 239.992 123.863C239.811 123.738 239.607 123.676 239.38 123.676C238.995 123.676 238.66 123.795 238.377 124.033C238.094 124.271 237.861 124.588 237.68 124.985C237.499 125.382 237.368 125.818 237.289 126.294C237.164 126.929 237.147 127.495 237.238 127.994C237.34 128.493 237.538 128.889 237.833 129.184C238.128 129.479 238.513 129.626 238.989 129.626C239.261 129.626 239.544 129.586 239.839 129.507C240.134 129.428 240.423 129.28 240.706 129.065C240.74 129.042 240.774 129.054 240.808 129.099C240.853 129.144 240.859 129.184 240.825 129.218C240.394 129.569 239.975 129.824 239.567 129.983C239.159 130.13 238.751 130.204 238.343 130.204ZM241.705 133.043C241.66 133.077 241.614 133.066 241.569 133.009C241.535 132.952 241.541 132.913 241.586 132.89C241.971 132.527 242.272 132.153 242.487 131.768C242.714 131.394 242.855 131.009 242.912 130.612C242.969 130.306 242.969 130.085 242.912 129.949C242.867 129.802 242.81 129.705 242.742 129.66L243.218 129.507C243.229 129.711 243.178 129.87 243.065 129.983C242.952 130.085 242.804 130.136 242.623 130.136C242.408 130.136 242.238 130.068 242.113 129.932C242 129.796 241.949 129.632 241.96 129.439C241.971 129.235 242.045 129.076 242.181 128.963C242.317 128.85 242.51 128.793 242.759 128.793C243.088 128.793 243.337 128.923 243.507 129.184C243.688 129.433 243.734 129.807 243.643 130.306C243.552 130.839 243.331 131.326 242.98 131.768C242.64 132.21 242.215 132.635 241.705 133.043ZM251.378 130.204C251.163 130.204 250.953 130.159 250.749 130.068C250.557 129.989 250.409 129.847 250.307 129.643C250.217 129.428 250.205 129.133 250.273 128.759L251.004 124.798C251.084 124.379 251.089 124.118 251.021 124.016C250.965 123.914 250.766 123.863 250.426 123.863C250.381 123.863 250.364 123.829 250.375 123.761C250.387 123.693 250.409 123.659 250.443 123.659C250.84 123.659 251.18 123.534 251.463 123.285C251.747 123.024 251.934 122.713 252.024 122.35C252.036 122.316 252.087 122.299 252.177 122.299C252.279 122.299 252.325 122.316 252.313 122.35L251.259 128.232C251.169 128.697 251.186 129.037 251.31 129.252C251.446 129.467 251.69 129.575 252.041 129.575C252.37 129.575 252.665 129.501 252.925 129.354C253.186 129.195 253.435 129.014 253.673 128.81C253.696 128.787 253.73 128.799 253.775 128.844C253.832 128.889 253.843 128.923 253.809 128.946C253.299 129.399 252.852 129.722 252.466 129.915C252.081 130.108 251.718 130.204 251.378 130.204ZM253.826 124.186C253.804 124.186 253.679 124.175 253.452 124.152C253.226 124.118 252.959 124.09 252.653 124.067C252.359 124.033 252.07 124.016 251.786 124.016L251.82 123.608C252.115 123.608 252.432 123.597 252.772 123.574C253.112 123.551 253.424 123.534 253.707 123.523C253.991 123.5 254.172 123.489 254.251 123.489C254.308 123.489 254.342 123.506 254.353 123.54C254.376 123.563 254.382 123.597 254.37 123.642C254.359 123.733 254.291 123.846 254.166 123.982C254.053 124.118 253.94 124.186 253.826 124.186ZM256.953 130.238C256.409 130.238 255.961 130.079 255.61 129.762C255.259 129.445 255.021 129.02 254.896 128.487C254.771 127.954 254.771 127.365 254.896 126.719C255.021 126.05 255.259 125.455 255.61 124.934C255.961 124.401 256.386 123.982 256.885 123.676C257.384 123.37 257.911 123.217 258.466 123.217C259.055 123.217 259.526 123.381 259.877 123.71C260.24 124.027 260.478 124.452 260.591 124.985C260.716 125.506 260.71 126.084 260.574 126.719C260.438 127.433 260.177 128.056 259.792 128.589C259.418 129.122 258.976 129.53 258.466 129.813C257.967 130.096 257.463 130.238 256.953 130.238ZM257.548 129.813C258.013 129.813 258.438 129.609 258.823 129.201C259.22 128.782 259.486 128.204 259.622 127.467C259.701 127.048 259.73 126.617 259.707 126.175C259.684 125.722 259.605 125.302 259.469 124.917C259.333 124.532 259.14 124.22 258.891 123.982C258.642 123.744 258.336 123.625 257.973 123.625C257.497 123.625 257.061 123.835 256.664 124.254C256.267 124.673 255.995 125.251 255.848 125.988C255.757 126.43 255.729 126.872 255.763 127.314C255.797 127.756 255.882 128.17 256.018 128.555C256.165 128.929 256.364 129.235 256.613 129.473C256.874 129.7 257.185 129.813 257.548 129.813ZM264.787 134.777C264.583 134.777 264.413 134.72 264.277 134.607C264.141 134.505 264.084 134.324 264.107 134.063C264.186 133.768 264.413 133.621 264.787 133.621C265.025 133.621 265.257 133.615 265.484 133.604C265.722 133.593 265.948 133.553 266.164 133.485C266.39 133.428 266.606 133.332 266.81 133.196C267.059 133.026 267.348 132.731 267.677 132.312C268.005 131.904 268.351 131.428 268.714 130.884C269.076 130.351 269.422 129.802 269.751 129.235C270.079 128.668 270.357 128.136 270.584 127.637C270.822 127.138 270.98 126.73 271.06 126.413C271.139 126.084 271.167 125.784 271.145 125.512C271.122 125.24 271.077 125.002 271.009 124.798C270.941 124.583 270.878 124.396 270.822 124.237C270.765 124.067 270.737 123.931 270.737 123.829C270.737 123.659 270.793 123.523 270.907 123.421C271.02 123.319 271.167 123.268 271.349 123.268C271.587 123.268 271.751 123.353 271.842 123.523C271.944 123.693 271.995 123.92 271.995 124.203C271.995 124.611 271.904 125.104 271.723 125.682C271.541 126.249 271.292 126.866 270.975 127.535C270.669 128.204 270.312 128.878 269.904 129.558C269.507 130.227 269.082 130.873 268.629 131.496C268.187 132.131 267.733 132.692 267.269 133.179C266.804 133.666 266.356 134.052 265.926 134.335C265.506 134.63 265.127 134.777 264.787 134.777ZM268.187 131.921C268.255 129.416 268.113 127.478 267.762 126.107C267.422 124.724 266.923 124.033 266.266 124.033C266.118 124.033 265.965 124.078 265.807 124.169C265.659 124.26 265.529 124.424 265.416 124.662C265.393 124.707 265.348 124.724 265.28 124.713C265.223 124.69 265.2 124.656 265.212 124.611C265.427 124.18 265.665 123.852 265.926 123.625C266.186 123.398 266.475 123.285 266.793 123.285C267.189 123.285 267.541 123.478 267.847 123.863C268.153 124.248 268.402 124.781 268.595 125.461C268.787 126.13 268.923 126.906 269.003 127.79C269.082 128.663 269.093 129.598 269.037 130.595L268.187 131.921ZM275.248 130.238C274.704 130.238 274.256 130.079 273.905 129.762C273.554 129.445 273.316 129.02 273.191 128.487C273.066 127.954 273.066 127.365 273.191 126.719C273.316 126.05 273.554 125.455 273.905 124.934C274.256 124.401 274.681 123.982 275.18 123.676C275.679 123.37 276.206 123.217 276.761 123.217C277.35 123.217 277.821 123.381 278.172 123.71C278.535 124.027 278.773 124.452 278.886 124.985C279.011 125.506 279.005 126.084 278.869 126.719C278.733 127.433 278.472 128.056 278.087 128.589C277.713 129.122 277.271 129.53 276.761 129.813C276.262 130.096 275.758 130.238 275.248 130.238ZM275.843 129.813C276.308 129.813 276.733 129.609 277.118 129.201C277.515 128.782 277.781 128.204 277.917 127.467C277.996 127.048 278.025 126.617 278.002 126.175C277.979 125.722 277.9 125.302 277.764 124.917C277.628 124.532 277.435 124.22 277.186 123.982C276.937 123.744 276.631 123.625 276.268 123.625C275.792 123.625 275.356 123.835 274.959 124.254C274.562 124.673 274.29 125.251 274.143 125.988C274.052 126.43 274.024 126.872 274.058 127.314C274.092 127.756 274.177 128.17 274.313 128.555C274.46 128.929 274.659 129.235 274.908 129.473C275.169 129.7 275.48 129.813 275.843 129.813ZM281.647 130.221C281.16 130.221 280.831 130.045 280.661 129.694C280.491 129.331 280.486 128.759 280.644 127.977L281.256 124.951C281.324 124.6 281.33 124.35 281.273 124.203C281.217 124.044 281.12 123.965 280.984 123.965C280.86 123.965 280.701 124.039 280.508 124.186C280.316 124.322 280.1 124.509 279.862 124.747C279.817 124.792 279.772 124.792 279.726 124.747C279.681 124.702 279.681 124.656 279.726 124.611C280.1 124.18 280.44 123.852 280.746 123.625C281.052 123.398 281.353 123.285 281.647 123.285C281.919 123.285 282.095 123.41 282.174 123.659C282.265 123.908 282.248 124.339 282.123 124.951L281.579 127.654C281.432 128.311 281.415 128.793 281.528 129.099C281.642 129.405 281.863 129.558 282.191 129.558C282.565 129.558 282.951 129.326 283.347 128.861C283.744 128.396 284.118 127.716 284.469 126.821C284.832 125.926 285.127 124.838 285.353 123.557L285.574 123.574C285.348 124.9 285.03 126.062 284.622 127.059C284.226 128.056 283.772 128.833 283.262 129.388C282.752 129.943 282.214 130.221 281.647 130.221ZM284.962 130.153C284.679 130.153 284.503 130.034 284.435 129.796C284.367 129.547 284.384 129.122 284.486 128.521L285.353 123.557C285.387 123.387 285.569 123.302 285.897 123.302C286.067 123.302 286.175 123.313 286.22 123.336C286.277 123.359 286.305 123.381 286.305 123.404C286.305 123.449 286.277 123.602 286.22 123.863C286.164 124.124 286.107 124.401 286.05 124.696L285.353 128.487C285.24 129.156 285.331 129.49 285.625 129.49C285.761 129.49 285.931 129.422 286.135 129.286C286.339 129.15 286.566 128.957 286.815 128.708C286.849 128.663 286.889 128.668 286.934 128.725C286.98 128.77 286.985 128.81 286.951 128.844C286.555 129.286 286.198 129.615 285.88 129.83C285.574 130.045 285.268 130.153 284.962 130.153ZM289.193 129.881L289.023 129.864C289.113 129.354 289.238 128.804 289.397 128.215C289.567 127.614 289.759 127.025 289.975 126.447C290.19 125.869 290.422 125.342 290.672 124.866C290.921 124.39 291.176 124.01 291.437 123.727C291.697 123.432 291.958 123.285 292.219 123.285C292.377 123.285 292.53 123.33 292.678 123.421C292.825 123.5 292.944 123.608 293.035 123.744C293.137 123.88 293.171 124.033 293.137 124.203C293.103 124.35 293.035 124.464 292.933 124.543C292.842 124.622 292.729 124.662 292.593 124.662C292.423 124.662 292.292 124.617 292.202 124.526C292.122 124.435 292.049 124.345 291.981 124.254C291.924 124.152 291.839 124.101 291.726 124.101C291.567 124.101 291.391 124.237 291.199 124.509C291.006 124.77 290.808 125.121 290.604 125.563C290.4 125.994 290.201 126.47 290.009 126.991C289.827 127.501 289.663 128.011 289.516 128.521C289.368 129.031 289.261 129.484 289.193 129.881ZM288.649 130.136C288.49 130.136 288.388 130.125 288.343 130.102C288.297 130.091 288.275 130.068 288.275 130.034C288.275 129.989 288.303 129.83 288.36 129.558C288.428 129.275 288.484 129.003 288.53 128.742L289.091 125.597C289.181 125.144 289.215 124.804 289.193 124.577C289.17 124.339 289.119 124.175 289.04 124.084C288.96 123.993 288.875 123.948 288.785 123.948C288.626 123.948 288.456 124.016 288.275 124.152C288.093 124.288 287.918 124.43 287.748 124.577C287.725 124.611 287.691 124.605 287.646 124.56C287.6 124.515 287.589 124.475 287.612 124.441C287.952 124.056 288.269 123.767 288.564 123.574C288.858 123.381 289.153 123.285 289.448 123.285C289.652 123.285 289.81 123.353 289.924 123.489C290.037 123.614 290.099 123.84 290.111 124.169C290.122 124.498 290.071 124.962 289.958 125.563L289.193 129.881C289.159 130.051 288.977 130.136 288.649 130.136ZM296.098 134.675C296.053 134.686 296.025 134.658 296.013 134.59C296.002 134.522 296.019 134.482 296.064 134.471C296.314 134.426 296.501 134.369 296.625 134.301C296.75 134.233 296.846 134.108 296.914 133.927C296.982 133.757 297.045 133.496 297.101 133.145L298.835 123.438C298.835 123.404 298.875 123.353 298.954 123.285C299.034 123.217 299.13 123.132 299.243 123.03C299.357 122.917 299.459 122.792 299.549 122.656C299.64 122.52 299.702 122.367 299.736 122.197C299.759 122.152 299.799 122.135 299.855 122.146C299.912 122.157 299.935 122.186 299.923 122.231L298.002 133.026C297.923 133.491 297.946 133.791 298.07 133.927C298.206 134.063 298.512 134.103 298.988 134.046C299.034 134.023 299.062 134.046 299.073 134.114C299.096 134.182 299.079 134.222 299.022 134.233L296.098 134.675ZM299.532 130.017C299.113 130.017 298.796 130 298.58 129.966C298.376 129.932 298.195 129.898 298.036 129.864L298.206 128.98C298.422 129.127 298.671 129.258 298.954 129.371C299.238 129.484 299.589 129.541 300.008 129.541C300.518 129.541 300.943 129.399 301.283 129.116C301.635 128.821 301.918 128.43 302.133 127.943C302.349 127.444 302.49 126.883 302.558 126.26C302.615 125.875 302.621 125.506 302.575 125.155C302.53 124.792 302.405 124.498 302.201 124.271C301.997 124.044 301.663 123.931 301.198 123.931C300.677 123.931 300.15 124.084 299.617 124.39C299.096 124.696 298.484 125.115 297.781 125.648C297.747 125.671 297.708 125.654 297.662 125.597C297.617 125.54 297.617 125.506 297.662 125.495C298.342 124.894 299.045 124.384 299.77 123.965C300.507 123.534 301.221 123.319 301.912 123.319C302.547 123.319 303 123.523 303.272 123.931C303.556 124.339 303.641 124.928 303.527 125.699C303.448 126.277 303.278 126.827 303.017 127.348C302.757 127.869 302.439 128.334 302.065 128.742C301.703 129.139 301.3 129.45 300.858 129.677C300.416 129.904 299.974 130.017 299.532 130.017ZM306.625 130.204C306.025 130.204 305.549 130.045 305.197 129.728C304.857 129.411 304.631 128.997 304.517 128.487C304.415 127.977 304.421 127.433 304.534 126.855C304.602 126.436 304.75 126.011 304.976 125.58C305.214 125.138 305.509 124.741 305.86 124.39C306.212 124.039 306.603 123.755 307.033 123.54C307.464 123.325 307.923 123.217 308.41 123.217C308.83 123.217 309.136 123.302 309.328 123.472C309.532 123.631 309.612 123.852 309.566 124.135C309.51 124.407 309.351 124.668 309.09 124.917C308.83 125.166 308.495 125.393 308.087 125.597C307.679 125.79 307.22 125.96 306.71 126.107C306.212 126.254 305.69 126.356 305.146 126.413L305.18 126.192C306.053 126.067 306.784 125.869 307.373 125.597C307.974 125.314 308.325 124.945 308.427 124.492C308.507 124.186 308.456 123.976 308.274 123.863C308.093 123.738 307.889 123.676 307.662 123.676C307.277 123.676 306.943 123.795 306.659 124.033C306.376 124.271 306.144 124.588 305.962 124.985C305.781 125.382 305.651 125.818 305.571 126.294C305.447 126.929 305.43 127.495 305.52 127.994C305.622 128.493 305.821 128.889 306.115 129.184C306.41 129.479 306.795 129.626 307.271 129.626C307.543 129.626 307.827 129.586 308.121 129.507C308.416 129.428 308.705 129.28 308.988 129.065C309.022 129.042 309.056 129.054 309.09 129.099C309.136 129.144 309.141 129.184 309.107 129.218C308.677 129.569 308.257 129.824 307.849 129.983C307.441 130.13 307.033 130.204 306.625 130.204ZM311.704 129.881L311.534 129.864C311.625 129.354 311.75 128.804 311.908 128.215C312.078 127.614 312.271 127.025 312.486 126.447C312.702 125.869 312.934 125.342 313.183 124.866C313.433 124.39 313.688 124.01 313.948 123.727C314.209 123.432 314.47 123.285 314.73 123.285C314.889 123.285 315.042 123.33 315.189 123.421C315.337 123.5 315.456 123.608 315.546 123.744C315.648 123.88 315.682 124.033 315.648 124.203C315.614 124.35 315.546 124.464 315.444 124.543C315.354 124.622 315.24 124.662 315.104 124.662C314.934 124.662 314.804 124.617 314.713 124.526C314.634 124.435 314.56 124.345 314.492 124.254C314.436 124.152 314.351 124.101 314.237 124.101C314.079 124.101 313.903 124.237 313.71 124.509C313.518 124.77 313.319 125.121 313.115 125.563C312.911 125.994 312.713 126.47 312.52 126.991C312.339 127.501 312.175 128.011 312.027 128.521C311.88 129.031 311.772 129.484 311.704 129.881ZM311.16 130.136C311.002 130.136 310.9 130.125 310.854 130.102C310.809 130.091 310.786 130.068 310.786 130.034C310.786 129.989 310.815 129.83 310.871 129.558C310.939 129.275 310.996 129.003 311.041 128.742L311.602 125.597C311.693 125.144 311.727 124.804 311.704 124.577C311.682 124.339 311.631 124.175 311.551 124.084C311.472 123.993 311.387 123.948 311.296 123.948C311.138 123.948 310.968 124.016 310.786 124.152C310.605 124.288 310.429 124.43 310.259 124.577C310.237 124.611 310.203 124.605 310.157 124.56C310.112 124.515 310.101 124.475 310.123 124.441C310.463 124.056 310.781 123.767 311.075 123.574C311.37 123.381 311.665 123.285 311.959 123.285C312.163 123.285 312.322 123.353 312.435 123.489C312.549 123.614 312.611 123.84 312.622 124.169C312.634 124.498 312.583 124.962 312.469 125.563L311.704 129.881C311.67 130.051 311.489 130.136 311.16 130.136ZM314.915 134.675C314.518 134.675 314.235 134.596 314.065 134.437C313.883 134.29 313.81 134.125 313.844 133.944C313.855 133.797 313.917 133.672 314.031 133.57C314.144 133.468 314.286 133.417 314.456 133.417C314.637 133.417 314.767 133.462 314.847 133.553C314.926 133.655 314.983 133.768 315.017 133.893C315.051 134.018 315.096 134.125 315.153 134.216C315.198 134.318 315.289 134.369 315.425 134.369C315.561 134.369 315.674 134.278 315.765 134.097C315.867 133.927 315.969 133.587 316.071 133.077C316.173 132.567 316.297 131.808 316.445 130.799L317.312 124.798C317.357 124.515 317.363 124.311 317.329 124.186C317.306 124.05 317.221 123.965 317.074 123.931C316.926 123.886 316.694 123.863 316.377 123.863C316.331 123.863 316.314 123.829 316.326 123.761C316.337 123.693 316.36 123.659 316.394 123.659C316.802 123.659 317.091 123.602 317.261 123.489C317.431 123.376 317.538 123.177 317.584 122.894C317.754 121.863 317.935 121.013 318.128 120.344C318.332 119.664 318.564 119.131 318.825 118.746C319.085 118.349 319.391 118.072 319.743 117.913C320.094 117.743 320.519 117.658 321.018 117.658C321.426 117.658 321.737 117.749 321.953 117.93C322.168 118.1 322.264 118.304 322.242 118.542C322.208 118.712 322.134 118.837 322.021 118.916C321.907 118.995 321.783 119.035 321.647 119.035C321.465 119.035 321.335 118.978 321.256 118.865C321.188 118.752 321.125 118.621 321.069 118.474C321.023 118.327 320.961 118.196 320.882 118.083C320.802 117.97 320.672 117.913 320.491 117.913C320.049 117.913 319.669 118.304 319.352 119.086C319.034 119.857 318.762 121.007 318.536 122.537L317.397 130.357C317.238 131.434 317.057 132.289 316.853 132.924C316.649 133.559 316.388 134.006 316.071 134.267C315.765 134.539 315.379 134.675 314.915 134.675ZM319.675 124.186C319.55 124.163 319.386 124.141 319.182 124.118C318.989 124.084 318.774 124.056 318.536 124.033C318.309 124.01 318.071 123.999 317.822 123.999L317.856 123.608C318.105 123.608 318.388 123.597 318.706 123.574C319.034 123.551 319.335 123.534 319.607 123.523C319.879 123.5 320.054 123.489 320.134 123.489C320.19 123.489 320.224 123.506 320.236 123.54C320.258 123.563 320.264 123.597 320.253 123.642C320.23 123.733 320.156 123.852 320.032 123.999C319.918 124.135 319.799 124.197 319.675 124.186ZM322.48 130.204C321.879 130.204 321.403 130.045 321.052 129.728C320.712 129.411 320.485 128.997 320.372 128.487C320.27 127.977 320.275 127.433 320.389 126.855C320.457 126.436 320.604 126.011 320.831 125.58C321.069 125.138 321.363 124.741 321.715 124.39C322.066 124.039 322.457 123.755 322.888 123.54C323.318 123.325 323.777 123.217 324.265 123.217C324.684 123.217 324.99 123.302 325.183 123.472C325.387 123.631 325.466 123.852 325.421 124.135C325.364 124.407 325.205 124.668 324.945 124.917C324.684 125.166 324.35 125.393 323.942 125.597C323.534 125.79 323.075 125.96 322.565 126.107C322.066 126.254 321.545 126.356 321.001 126.413L321.035 126.192C321.907 126.067 322.638 125.869 323.228 125.597C323.828 125.314 324.18 124.945 324.282 124.492C324.361 124.186 324.31 123.976 324.129 123.863C323.947 123.738 323.743 123.676 323.517 123.676C323.131 123.676 322.797 123.795 322.514 124.033C322.23 124.271 321.998 124.588 321.817 124.985C321.635 125.382 321.505 125.818 321.426 126.294C321.301 126.929 321.284 127.495 321.375 127.994C321.477 128.493 321.675 128.889 321.97 129.184C322.264 129.479 322.65 129.626 323.126 129.626C323.398 129.626 323.681 129.586 323.976 129.507C324.27 129.428 324.559 129.28 324.843 129.065C324.877 129.042 324.911 129.054 324.945 129.099C324.99 129.144 324.996 129.184 324.962 129.218C324.531 129.569 324.112 129.824 323.704 129.983C323.296 130.13 322.888 130.204 322.48 130.204ZM328.341 130.221C327.854 130.221 327.451 130.113 327.134 129.898C326.828 129.671 326.596 129.382 326.437 129.031C326.278 128.668 326.188 128.272 326.165 127.841C326.142 127.41 326.176 126.985 326.267 126.566C326.414 125.852 326.681 125.251 327.066 124.764C327.463 124.265 327.91 123.886 328.409 123.625C328.919 123.353 329.418 123.217 329.905 123.217C330.177 123.217 330.426 123.262 330.653 123.353C330.891 123.432 331.072 123.546 331.197 123.693C331.333 123.84 331.39 124.016 331.367 124.22C331.356 124.367 331.305 124.498 331.214 124.611C331.123 124.713 330.987 124.764 330.806 124.764C330.647 124.764 330.517 124.713 330.415 124.611C330.324 124.509 330.251 124.379 330.194 124.22C330.16 124.084 330.075 123.948 329.939 123.812C329.803 123.665 329.593 123.591 329.31 123.591C328.936 123.591 328.613 123.704 328.341 123.931C328.069 124.146 327.848 124.441 327.678 124.815C327.519 125.178 327.395 125.586 327.304 126.039C327.191 126.662 327.168 127.252 327.236 127.807C327.315 128.351 327.502 128.793 327.797 129.133C328.092 129.462 328.511 129.626 329.055 129.626C329.429 129.626 329.763 129.547 330.058 129.388C330.353 129.229 330.619 129.054 330.857 128.861C330.891 128.838 330.931 128.85 330.976 128.895C331.021 128.94 331.027 128.98 330.993 129.014C330.528 129.433 330.075 129.739 329.633 129.932C329.191 130.125 328.76 130.221 328.341 130.221ZM333.589 130.204C333.374 130.204 333.164 130.159 332.96 130.068C332.768 129.989 332.62 129.847 332.518 129.643C332.428 129.428 332.416 129.133 332.484 128.759L333.215 124.798C333.295 124.379 333.3 124.118 333.232 124.016C333.176 123.914 332.977 123.863 332.637 123.863C332.592 123.863 332.575 123.829 332.586 123.761C332.598 123.693 332.62 123.659 332.654 123.659C333.051 123.659 333.391 123.534 333.674 123.285C333.958 123.024 334.145 122.713 334.235 122.35C334.247 122.316 334.298 122.299 334.388 122.299C334.49 122.299 334.536 122.316 334.524 122.35L333.47 128.232C333.38 128.697 333.397 129.037 333.521 129.252C333.657 129.467 333.901 129.575 334.252 129.575C334.581 129.575 334.876 129.501 335.136 129.354C335.397 129.195 335.646 129.014 335.884 128.81C335.907 128.787 335.941 128.799 335.986 128.844C336.043 128.889 336.054 128.923 336.02 128.946C335.51 129.399 335.063 129.722 334.677 129.915C334.292 130.108 333.929 130.204 333.589 130.204ZM336.037 124.186C336.015 124.186 335.89 124.175 335.663 124.152C335.437 124.118 335.17 124.09 334.864 124.067C334.57 124.033 334.281 124.016 333.997 124.016L334.031 123.608C334.326 123.608 334.643 123.597 334.983 123.574C335.323 123.551 335.635 123.534 335.918 123.523C336.202 123.5 336.383 123.489 336.462 123.489C336.519 123.489 336.553 123.506 336.564 123.54C336.587 123.563 336.593 123.597 336.581 123.642C336.57 123.733 336.502 123.846 336.377 123.982C336.264 124.118 336.151 124.186 336.037 124.186ZM342.247 130.187C341.817 130.187 341.443 130.085 341.125 129.881C340.808 129.677 340.672 129.428 340.717 129.133C340.74 128.974 340.802 128.855 340.904 128.776C341.006 128.697 341.114 128.657 341.227 128.657C341.375 128.657 341.482 128.719 341.55 128.844C341.63 128.957 341.709 129.088 341.788 129.235C341.868 129.382 341.981 129.518 342.128 129.643C342.276 129.756 342.485 129.813 342.757 129.813C343.063 129.813 343.307 129.728 343.488 129.558C343.681 129.388 343.8 129.127 343.845 128.776C343.891 128.425 343.84 128.124 343.692 127.875C343.545 127.614 343.341 127.382 343.08 127.178C342.831 126.974 342.582 126.77 342.332 126.566C342.094 126.351 341.902 126.113 341.754 125.852C341.618 125.591 341.584 125.285 341.652 124.934C341.72 124.583 341.868 124.282 342.094 124.033C342.332 123.784 342.61 123.597 342.927 123.472C343.256 123.336 343.585 123.268 343.913 123.268C344.321 123.268 344.661 123.353 344.933 123.523C345.205 123.682 345.324 123.88 345.29 124.118C345.256 124.277 345.183 124.396 345.069 124.475C344.967 124.543 344.865 124.577 344.763 124.577C344.605 124.577 344.48 124.532 344.389 124.441C344.299 124.35 344.208 124.243 344.117 124.118C344.038 123.993 343.936 123.886 343.811 123.795C343.698 123.693 343.528 123.642 343.301 123.642C343.086 123.642 342.893 123.699 342.723 123.812C342.553 123.925 342.451 124.095 342.417 124.322C342.361 124.662 342.406 124.957 342.553 125.206C342.712 125.455 342.916 125.688 343.165 125.903C343.415 126.118 343.664 126.339 343.913 126.566C344.163 126.781 344.355 127.025 344.491 127.297C344.639 127.569 344.684 127.886 344.627 128.249C344.571 128.578 344.429 128.895 344.202 129.201C343.987 129.496 343.709 129.734 343.369 129.915C343.029 130.096 342.655 130.187 342.247 130.187ZM347.513 130.153C347.241 130.153 347.06 130.034 346.969 129.796C346.878 129.558 346.895 129.122 347.02 128.487L347.717 124.951C347.842 124.282 347.745 123.948 347.428 123.948C347.303 123.948 347.133 124.016 346.918 124.152C346.714 124.288 346.493 124.481 346.255 124.73C346.221 124.775 346.176 124.775 346.119 124.73C346.074 124.673 346.074 124.628 346.119 124.594C346.504 124.152 346.856 123.823 347.173 123.608C347.49 123.393 347.796 123.285 348.091 123.285C348.374 123.285 348.556 123.41 348.635 123.659C348.714 123.897 348.692 124.316 348.567 124.917L347.887 128.487C347.819 128.827 347.813 129.076 347.87 129.235C347.927 129.394 348.023 129.473 348.159 129.473C348.284 129.473 348.448 129.411 348.652 129.286C348.856 129.15 349.077 128.963 349.315 128.725C349.36 128.68 349.406 128.68 349.451 128.725C349.496 128.77 349.496 128.816 349.451 128.861C349.077 129.28 348.731 129.603 348.414 129.83C348.108 130.045 347.808 130.153 347.513 130.153ZM348.584 121.279C348.357 121.279 348.176 121.217 348.04 121.092C347.915 120.967 347.853 120.786 347.853 120.548C347.853 120.333 347.915 120.163 348.04 120.038C348.176 119.913 348.357 119.851 348.584 119.851C348.822 119.851 348.998 119.913 349.111 120.038C349.236 120.163 349.298 120.333 349.298 120.548C349.298 121.035 349.06 121.279 348.584 121.279ZM349.877 130.119C349.855 130.13 349.826 130.108 349.792 130.051C349.747 130.006 349.73 129.977 349.741 129.966L355.096 123.88L354.994 124.067C354.847 124.271 354.711 124.413 354.586 124.492C354.462 124.56 354.28 124.594 354.042 124.594C353.804 124.594 353.521 124.56 353.192 124.492C352.875 124.424 352.569 124.356 352.274 124.288C351.98 124.22 351.742 124.186 351.56 124.186C351.368 124.186 351.215 124.254 351.101 124.39C350.999 124.526 350.886 124.73 350.761 125.002C350.75 125.047 350.71 125.059 350.642 125.036C350.574 125.013 350.552 124.974 350.574 124.917C350.756 124.407 350.903 124.039 351.016 123.812C351.141 123.585 351.271 123.444 351.407 123.387C351.555 123.319 351.747 123.291 351.985 123.302C352.382 123.325 352.841 123.404 353.362 123.54C353.884 123.665 354.365 123.738 354.807 123.761C354.989 123.761 355.147 123.727 355.283 123.659C355.419 123.591 355.572 123.461 355.742 123.268C355.776 123.245 355.81 123.262 355.844 123.319C355.89 123.364 355.901 123.398 355.878 123.421L350.54 129.507L350.608 129.303C350.756 129.099 350.897 128.963 351.033 128.895C351.169 128.827 351.356 128.793 351.594 128.793C351.878 128.793 352.201 128.827 352.563 128.895C352.937 128.952 353.294 129.014 353.634 129.082C353.986 129.15 354.263 129.184 354.467 129.184C354.66 129.184 354.807 129.127 354.909 129.014C355.023 128.889 355.13 128.685 355.232 128.402C355.244 128.379 355.278 128.374 355.334 128.385C355.402 128.396 355.431 128.425 355.419 128.47C355.261 128.969 355.119 129.337 354.994 129.575C354.881 129.802 354.756 129.943 354.62 130C354.496 130.057 354.32 130.085 354.093 130.085C353.776 130.074 353.425 130.034 353.039 129.966C352.665 129.898 352.286 129.83 351.9 129.762C351.515 129.683 351.152 129.637 350.812 129.626C350.631 129.626 350.472 129.66 350.336 129.728C350.2 129.796 350.047 129.926 349.877 130.119ZM358.339 130.204C357.738 130.204 357.262 130.045 356.911 129.728C356.571 129.411 356.344 128.997 356.231 128.487C356.129 127.977 356.135 127.433 356.248 126.855C356.316 126.436 356.463 126.011 356.69 125.58C356.928 125.138 357.223 124.741 357.574 124.39C357.925 124.039 358.316 123.755 358.747 123.54C359.178 123.325 359.637 123.217 360.124 123.217C360.543 123.217 360.849 123.302 361.042 123.472C361.246 123.631 361.325 123.852 361.28 124.135C361.223 124.407 361.065 124.668 360.804 124.917C360.543 125.166 360.209 125.393 359.801 125.597C359.393 125.79 358.934 125.96 358.424 126.107C357.925 126.254 357.404 126.356 356.86 126.413L356.894 126.192C357.767 126.067 358.498 125.869 359.087 125.597C359.688 125.314 360.039 124.945 360.141 124.492C360.22 124.186 360.169 123.976 359.988 123.863C359.807 123.738 359.603 123.676 359.376 123.676C358.991 123.676 358.656 123.795 358.373 124.033C358.09 124.271 357.857 124.588 357.676 124.985C357.495 125.382 357.364 125.818 357.285 126.294C357.16 126.929 357.143 127.495 357.234 127.994C357.336 128.493 357.534 128.889 357.829 129.184C358.124 129.479 358.509 129.626 358.985 129.626C359.257 129.626 359.54 129.586 359.835 129.507C360.13 129.428 360.419 129.28 360.702 129.065C360.736 129.042 360.77 129.054 360.804 129.099C360.849 129.144 360.855 129.184 360.821 129.218C360.39 129.569 359.971 129.824 359.563 129.983C359.155 130.13 358.747 130.204 358.339 130.204Z" fill="black"/>
<path d="M72 114V129" stroke="black" stroke-width="4"/>
<line x1="86" y1="114" x2="86" y2="141" stroke="black" stroke-width="4"/>
<path d="M127 114V129" stroke="black" stroke-width="4"/>
<path d="M102 114V129" stroke="black" stroke-width="4"/>
<line x1="116" y1="114" x2="116" y2="141" stroke="black" stroke-width="4"/>
</svg>
